# xmcd
#
# Track frame offsets:
#	150
#	15792
#	33129
#	42579
#	58630
#	73065
#	89740
#	108706
#	129395
#	150447
#
# Disc length: 2333
#
# Revision: 2
# Processed by: cddbd v1.5.1PL0 Copyright (c) Steve Scherf et al.
# Submitted via: CDex 1.30Release
# Normalized: r1:DSETVAR1,TDELIM( - )
#
DISCID=7d091b0a
DTITLE=Various Artist - air sampler
DYEAR=1900
DGENRE=Country
TTITLE0=the charlie daniels band - in america
TTITLE1=confederate railroad - she treats her body like a temple
TTITLE2=wayne hancock - miller jack and mad dog
TTITLE3=buddy and julie miller - little darlin'
TTITLE4=michael brady - get free of it
TTITLE5=gillian welch - elvis presley blues
TTITLE6=guy clark - to lives to fly
TTITLE7=emmylou harris - barbara allen
TTITLE8=alison kraus - the boy who wouldn't hoe corn
TTITLE9=glen skulthorpe - cradle to the grave
EXTD=ID3G:   2
EXTT0=
EXTT1=
EXTT2=
EXTT3=
EXTT4=
EXTT5=
EXTT6=
EXTT7=
EXTT8=
EXTT9=
PLAYORDER=
